<?xml version="1.0" encoding="UTF-8" standalone="no"?>
<!-- Created with Inkscape (http://www.inkscape.org/) -->

<svg
   xmlns:dc="http://purl.org/dc/elements/1.1/"
   xmlns:cc="http://creativecommons.org/ns#"
   xmlns:rdf="http://www.w3.org/1999/02/22-rdf-syntax-ns#"
   xmlns:svg="http://www.w3.org/2000/svg"
   xmlns="http://www.w3.org/2000/svg"
   xmlns:sodipodi="http://sodipodi.sourceforge.net/DTD/sodipodi-0.dtd"
   xmlns:inkscape="http://www.inkscape.org/namespaces/inkscape"
   width="1200"
   height="550"
   id="svg3936"
   version="1.1"
   inkscape:version="0.48.4 r9939"
   sodipodi:docname="New document 4">
  <defs
     id="defs3938" />
  <sodipodi:namedview
     id="base"
     pagecolor="#ffffff"
     bordercolor="#666666"
     borderopacity="1.0"
     inkscape:pageopacity="0.0"
     inkscape:pageshadow="2"
     inkscape:zoom="0.49497475"
     inkscape:cx="359.05332"
     inkscape:cy="19.622759"
     inkscape:document-units="px"
     inkscape:current-layer="layer1"
     showgrid="false"
     inkscape:window-width="1855"
     inkscape:window-height="1056"
     inkscape:window-x="65"
     inkscape:window-y="24"
     inkscape:window-maximized="1" />
  <metadata
     id="metadata3941">
    <rdf:RDF>
      <cc:Work
         rdf:about="">
        <dc:format>image/svg+xml</dc:format>
        <dc:type
           rdf:resource="http://purl.org/dc/dcmitype/StillImage" />
        <dc:title></dc:title>
      </cc:Work>
    </rdf:RDF>
  </metadata>
  <g
     inkscape:label="Layer 1"
     inkscape:groupmode="layer"
     id="layer1"
     transform="translate(0,-502.36218)">
    <g
       id="g20"
       transform="matrix(1.25,0,0,-1.25,574.61148,674.41449)">
      <path
         d="m 0,0 c -30.281,30.094 -44.173,61.974 -76.694,92.251 l -8.518,-1.849 -56.19,44.243 -53.155,-23.113 -18.227,7.924 -188.319,-15.848 -45.561,-25.093 45.561,-6.605 69.861,-30.377 0,-14.526 -27.336,0 0,-5.014 C -326.382,16.345 -297.171,9.714 -264.255,7.922 -170.951,0.546 -81.591,0.023 7.494,-11.198 6.043,-7.479 3.631,-3.749 0,0"
         style="fill:#5dcadd;fill-opacity:1;fill-rule:nonzero;stroke:none"
         id="path22"
         inkscape:connector-curvature="0" />
    </g>
    <g
       id="g24"
       transform="matrix(1.25,0,0,-1.25,583.97848,698.31736)">
      <path
         d="m 0,0 c -89.085,11.219 -178.445,11.746 -271.748,19.122 -32.916,1.79 -62.128,8.419 -94.324,14.068 l 0,-4.234 0,-7.922 -48.597,-54.146 77.456,-33.685 118.541,-42.3 119.801,-33.695 c 4.857,6.93 9.274,14.183 11.487,23.062 -1.361,5.322 3.878,12.588 6.993,18.005 C -55.777,-66.05 13.11,-33.59 0,0"
         style="fill:#5dcadd;fill-opacity:1;fill-rule:nonzero;stroke:none"
         id="path26"
         inkscape:connector-curvature="0" />
    </g>
    <g
       id="g28"
       transform="matrix(1.25,0,0,-1.25,757.68536,917.09661)">
      <path
         d="m 0,0 c -61.184,22.801 -139.129,31.028 -213.74,47.394 -1.761,-7.803 -5.089,-13.996 -8.771,-20.568 l 15.804,-4.447 51.637,-21.127 107.201,-17.171 16.421,-2.136 C -11.278,-11.192 8.925,-5.174 0,0"
         style="fill:#5dcadd;fill-opacity:1;fill-rule:nonzero;stroke:none"
         id="path30"
         inkscape:connector-curvature="0" />
    </g>
    <g
       id="g32"
       transform="matrix(1.25,0,0,-1.25,968.20456,673.67511)">
      <path
         d="m 0,0 -45.56,38.302 -133.652,-7.925 -91.12,14.527 0,13.208 -45.564,46.223 -21.262,0 -40.083,-8.712 c 32.524,-30.281 46.413,-62.159 76.696,-92.252 4.753,-4.908 7.449,-9.779 8.56,-14.632 93.08,-8.245 186.249,-18.757 281.965,-20.822 l -3.647,7.65 L 0,-18.491 0,0 z"
         style="fill:#5dcadd;fill-opacity:1;fill-rule:nonzero;stroke:none"
         id="path34"
         inkscape:connector-curvature="0" />
    </g>
    <g
       id="g36"
       transform="matrix(1.25,0,0,-1.25,1101.0835,977.44213)">
      <path
         d="m 0,0 -18.215,-7.924 -15.19,6.606 -48.598,21.131 -28.856,12.546 0,15.187 -28.859,0 -31.895,13.866 -16.703,0 0,9.911 -10.631,4.62 31.894,49.526 28.857,12.547 0,7.922 39.482,27.737 -13.054,27.349 c -95.714,2.068 -188.884,12.579 -281.963,20.825 7.404,-32.373 -57.682,-63.834 -81.459,-98.292 -4.555,-7.926 -18.225,-15.848 -4.555,-19.812 77.454,-17.831 168.578,-29.716 232.36,-53.49 8.927,-5.172 -6.718,-13.171 -26.89,-20.034 l 10.024,-0.506 -2.043,-12.114 119.365,-28.335 63.404,-17.663 18.226,-17.165 19.737,8.581 13.671,-5.945 L -7.59,-53.492 77.453,-33.677 0,0 z"
         style="fill:#5dcadd;fill-opacity:1;fill-rule:nonzero;stroke:none"
         id="path38"
         inkscape:connector-curvature="0" />
    </g>
    <g
       id="g40"
       transform="matrix(1.25,0,0,-1.25,189.02036,876.81662)">
      <path
         d="m 0,0 c -1.703,-0.806 -2.484,-2.57 -5.406,-2.123 -1.541,-3.633 0.889,-8.234 0.702,-10.325 -5.46,-0.306 -8.388,-3.212 -12.147,-5.267 -2.946,-0.45 -3.835,2.84 -6.395,1.298 -3.74,-8.081 -0.108,-22.714 9.61,-21.9 2.153,-5.969 10.174,-3.271 12.719,0.36 2.104,0.373 0.753,-3.186 1.911,-3.896 2.356,0.116 1.696,2.595 1.259,4.472 5.752,8.328 7.793,20.469 15.729,26.55 -0.082,1.524 0.498,2.366 0.827,3.472 7.245,3.155 14.492,3.888 21.665,6.52 4.981,1.824 9.19,6.604 18.06,4.934 5.152,3.183 5.01,11.816 8.233,16.979 5.328,1.689 11.467,4.557 16.318,1.933 C 85.092,21.932 90.571,11.706 90.262,7.94 90.037,5.204 87.065,3.154 88.167,0.493 87.257,0.462 86.349,0.441 85.442,0.417 c -1.54,-3.641 0.886,-8.231 0.698,-10.329 -5.457,-0.306 -8.388,-3.213 -12.147,-5.267 -2.945,-0.451 -3.833,2.838 -6.395,1.301 -2.805,-2.728 -1.069,-6.496 -0.626,-11.841 0.739,-8.999 0.545,-19.856 -0.731,-26.624 2.45,-7.995 6.375,-14.298 12.698,-17.871 0.172,-1.154 0.764,-1.83 0.536,-3.437 1.046,-0.281 2.764,-0.903 3.631,0.105 5.568,4.995 7.367,13.642 14.129,17.633 6.151,3.633 13.682,3.716 20.728,7.477 0.114,6.127 -3.717,10.347 -3.098,15.683 0.966,8.326 8.793,10.835 17.971,8.874 4.503,-5.427 -1.257,-16.703 -3.529,-23.747 0.115,-1.892 2.559,-1.124 3.241,-2.368 3.712,-8.095 11.549,-14.177 12.848,-24.279 0.47,-3.64 -0.487,-6.547 1.585,-9.315 10.394,2.751 10.977,15.59 19.984,19.771 6.041,0.986 11.605,2.465 16.245,4.889 -0.532,0.569 -0.555,1.729 -0.522,2.939 -6.884,4.736 -11.261,-9.281 -16.747,-2.932 2.727,2.802 7.916,3.061 9.841,6.677 -3.205,2.452 -7.755,-3.998 -12.23,-1.819 -0.46,6.475 8.284,5.709 15.313,5.851 2.46,3.535 2.306,9.635 6.548,11.512 3.253,1.436 6.878,-0.139 11.365,-0.175 5.021,-5.08 -3.351,-12.347 -0.021,-18.23 2.615,-4.62 17.436,0.177 22.246,1.113 4.514,13.446 18.675,16.959 21.505,32.138 6.029,4.68 13.059,8.326 19.244,12.851 -0.036,3.668 -3.47,3.458 -2.917,7.797 1.751,3.485 6.533,3.85 9.868,5.701 0.343,1.885 1.151,3.292 0.764,5.931 2.345,0.31 2.705,2.661 5.859,2.136 3.011,7.469 14.356,12.151 23.051,5.571 2.67,-7.272 -0.358,-12.607 0.991,-22.639 -1.52,-0.354 -2.293,-1.476 -4.516,-1.111 -0.271,-2.197 -0.272,-3.247 -1.237,-5.453 -3.873,-1.172 -6.835,0.431 -9.992,-0.28 0.248,-4.875 -5.425,-19.402 0.2,-27.583 -0.263,-2.769 -1.819,-4.215 -2.574,-6.479 2.023,-2.91 2.425,-7.684 4.792,-10.208 5.811,12.107 18.765,16.86 21.972,31.655 6.404,3.492 11.832,7.991 18.365,11.35 1.067,2.113 -0.487,3.199 -1.469,4.388 2.258,2.003 4.931,3.573 4.813,8.022 2.045,0.934 4.854,1.08 4.436,4.555 6.098,0.957 8.205,11.398 13.762,13.686 5.094,2.094 11.031,-0.7 15.529,-3.015 1.922,-5.78 0.312,-14.654 0.537,-22.654 -0.643,-0.774 -2.315,-0.493 -3.622,-0.592 -0.574,-3.064 -1.944,-4.9 -4.845,-6.536 -2.398,-0.211 -3.395,1.183 -5.929,0.82 -2.179,-5.423 -5.736,-20.031 -0.703,-27.607 -0.042,-3.529 -2.728,-4.147 -2.564,-6.97 0.178,-3.062 6.155,-9.952 8.457,-11.589 1.358,-0.965 3.518,-0.594 4.589,-1.842 1.604,-1.86 1.528,-4.905 1.994,-7.333 -6.485,-6.003 -7.725,4.94 -12.906,7.519 -1.324,0.666 -3.453,0.204 -5.022,0.849 -4.809,1.959 -6.849,6.975 -10.936,1.172 2.42,-11.438 15.205,-14.86 20.143,-25.057 1.08,-9.602 -1.362,-15.569 -6.841,-18.424 -1.316,-7.438 -9.648,-12.199 -10.907,-19.024 -1.716,-9.288 8.351,-6.764 11.647,-11.991 -1.432,-2.872 -6.765,-3.032 -9.947,-2.244 -0.454,0.114 -1.039,1.373 -1.395,1.438 -1.082,0.192 -2.183,-0.832 -3.169,-0.577 -3.197,0.811 -5.988,3.51 -9.609,2.684 -3.724,6.534 1.668,9.026 4.681,13.431 4.511,6.606 4.351,15.841 8.572,21.922 -7.23,4.76 -20.937,-5.6 -25.229,-9.577 -0.78,-2.473 -1.177,-4.664 -2.129,-5.973 -5.862,-8.046 -18.5,-2.168 -28.513,-5.232 -3.172,-0.965 -4.325,-4.455 -4.81,-8.012 2.534,-0.991 7.411,0.704 6.463,-4.253 -3.088,-2.793 -7.8,-0.52 -12.263,-0.343 -2.98,0.118 -6.205,-1.044 -8.628,-0.243 -1.799,0.593 -3.03,2.163 -4.171,3.332 -0.905,5.606 4.291,9.519 6.937,13.989 3.946,6.65 3.404,13.402 7.269,19.42 -2.192,2.58 -6.456,1.113 -9.099,0.238 -6.174,-2.052 -11.609,-6.357 -16.128,-9.811 0.06,-17.671 -26.55,-6.431 -34.647,-14.764 -0.2,-5.72 -2.07,-9.715 -4.227,-13.422 -0.908,-0.026 -1.816,-0.051 -2.725,-0.076 -1.035,8.356 -0.267,17.226 0.323,24.648 5.075,2.041 8.38,-2.214 13.615,0.869 2.213,1.301 3.354,3.694 5.345,4.582 3.048,1.364 8.826,0.643 11.754,2.791 -0.359,8.967 -1.542,15.042 -2.835,23.571 2.989,11.485 8.252,20.638 12.912,30.412 -1.021,2.541 -2.581,4.468 -6.452,3.76 -2.331,-4.808 -6.295,-7.93 -9.258,-12.078 1.787,-4.339 3.45,-6.538 2.087,-11.276 -2.531,-0.649 -4.63,-0.135 -5.95,1.807 -5.414,-1.543 -8.539,1.647 -12.313,1.622 -7.081,-0.04 -9.43,-8.928 -16.107,-10.794 -1.718,-5.534 -1.851,-9.988 -3.734,-14.885 -1.59,-0.289 -2.942,-0.812 -4.989,-0.633 -3.838,-10.496 -3.885,-19.13 -11.634,-26.93 -5.703,0.998 -6.288,-2.563 -9.394,-6.171 -3.084,-3.576 -6.548,-4.655 -8.421,-9.106 1.105,-3.958 4.272,-5.575 5.229,-9.706 -3.896,-2.427 -5.206,2.195 -7.371,4.23 -1.665,1.566 -4.113,1.425 -4.635,3.812 -1.739,7.938 10.714,10.07 10.014,18.504 -3.151,3.278 -8.392,-0.856 -12.71,-0.846 -1.917,1.932 -0.673,4.336 -2.421,6.336 -7.439,3.366 -6.306,-5.895 -11.671,-6.232 -0.023,0.474 -0.563,0.362 -0.921,0.462 -1.773,4.204 2.024,14.584 5.998,15.444 3.886,0.841 7.182,-6.464 12.369,-4.088 2.379,1.084 2.34,3.841 5.777,5.581 2.331,1.17 5.419,5.434 7.977,8.596 3.748,4.616 12.183,13.971 -0.279,11.814 -3.722,-4.173 -6.967,-8.837 -12.927,-10.705 0.369,-1.273 1.746,-2.916 0.557,-4.421 -1.334,-1.154 -3.89,-0.323 -5.448,-0.15 -6.066,8.078 -5.571,23.645 -15.204,27.655 -2.052,-3.971 -2.218,-9.881 -3.75,-14.389 -1.403,-1.113 -3.722,-1.29 -5.867,-1.644 -3.944,-10.635 -4.398,-21.315 -12.938,-29.428 -4.91,1.086 -8.671,-2.389 -9.841,-6.675 -3.904,-2.546 -7.306,-5.613 -9.303,-10.119 1.333,-3.871 4.731,-5.383 5.683,-9.697 -7.617,-2.344 -7.913,7.295 -12.951,9.497 0.566,9.344 10.383,9.161 10.921,18.533 -3.135,4.432 -9.295,-0.586 -14.082,-0.394 -1.928,2.481 -0.922,5.284 -3.352,7.297 -3.509,0.251 -6.2,-0.344 -7.21,-2.665 -1.542,-0.417 -0.622,1.984 -2.306,1.411 0.025,-4.008 1.073,-10.791 2.62,-14.705 -7.103,-9.969 9.376,-9.912 15.749,-12.368 -0.327,-2.018 -0.03,-1.697 0.095,-3.941 -7.068,-3.416 -16.343,-2.557 -25.355,-4.156 -1.74,4.707 0.093,7.724 1.072,12.347 -1.224,1.47 -3.218,2.063 -5.954,1.805 -2.717,8.145 -0.031,24.322 -6.151,29.388 -1.314,1.084 -4.371,1.567 -6.442,3.27 -3.315,2.727 -4.23,7.005 -9.681,5.641 -2.103,-0.529 -5.547,-5.484 -9.327,-9.128 -1.787,-1.725 -4.301,-2.682 -5.356,-4.092 -1.49,-1.982 -4.199,-7.496 -6.605,-9.054 -6.636,-4.295 -18.141,1.391 -23.689,2.296 -4.336,-0.806 -5.535,-11.675 -7.827,-15 -1.404,-2.036 -4.723,-2.096 -3.036,-5.998 2.188,-5.061 12.369,-2.596 17.412,-5.913 -0.33,-2.019 -0.03,-1.695 0.091,-3.94 -7.064,-3.416 -16.341,-2.562 -25.352,-4.162 -1.741,4.708 0.091,7.727 1.069,12.349 -1.221,1.474 -3.214,2.066 -5.951,1.799 -2.716,8.147 -0.03,24.329 -6.155,29.394 -1.499,1.24 -4.516,2.216 -6.918,4.238 -2.776,2.346 -4.589,5.828 -9.2,4.67 -1.881,-0.47 -5.285,-5.225 -9.33,-9.128 -1.877,-1.813 -4.3,-2.682 -5.356,-4.084 -2.069,-2.764 -5.031,-8.961 -8.849,-10.106 -7.969,-2.39 -14.56,2.372 -21.444,3.342 -5.131,-3.525 -6.015,-11.417 -9.608,-16.528 -1.094,0.27 -2.088,0.65 -3.643,0.396 -0.703,9.596 1.627,19.177 2.964,28.163 5.121,0.277 7.318,-2.779 10.565,-4.636 1.717,1.282 2.777,3.234 3.039,6.001 5.311,-1.782 17.423,-1.957 19.917,3.516 -0.312,2.339 -3.116,1.831 -3.727,3.834 1.661,7.074 2.346,13.207 5.915,18.883 -0.744,5.897 1.044,12.027 3.246,16.351 2.403,0.728 3.404,2.902 5.357,4.091 -0.411,3.306 1.133,4.598 0.721,7.902 3.685,4.348 14.526,9.482 9.141,17.007 -8.57,1.015 -8.738,-4.651 -13.416,-9.243 -0.95,-0.938 -2.443,-1.288 -3.132,-2.06 -0.658,-0.732 -0.276,-2.22 -0.839,-2.977 -1.738,-2.353 -4.756,-3.03 -6.242,-5.105 0.466,-4.693 -1.087,-5.558 -2.98,-8.457 -3.021,0.264 -7.446,-1.075 -9.108,0.732 -0.072,1.68 0.163,3.805 0.302,6.414 2.351,1.417 3.973,3.592 7.173,4.136 5.703,7.901 7.505,19.812 15.302,25.561 -0.081,1.519 0.501,2.364 0.826,3.467 7.242,3.154 14.49,3.892 21.662,6.515 4.985,1.828 9.191,6.61 18.064,4.938 5.149,3.19 5.007,11.816 8.233,16.984 5.337,1.695 11.477,4.542 16.318,1.933 2.469,-1.332 5.475,-9.406 6.675,-13.11 C -0.435,5.349 -0.586,2.553 0,0 m 23.225,-21.03 c -4.612,-6.777 -9.921,-12.841 -15.93,-18.179 0.968,-9.777 -8.864,-10.939 -16.037,-13.75 -6.494,2.716 -11.424,11.995 -18.881,10.307 -1.341,0.993 -1.33,2.022 -2.328,2.403 -1.514,-0.044 -3.03,-0.086 -4.541,-0.13 0.016,-0.821 0.038,-1.641 0.058,-2.463 -5.82,-2.334 -5.1,-11.397 -7.315,-17.444 -2.126,-0.369 -2.978,-2.058 -3.539,-4.039 3.056,-7.947 10.378,-11.488 11.834,-19.871 8.407,-1.124 6.79,-10.871 8.633,-18.97 1.29,2.832 -0.286,8.618 2.027,10.402 5.05,0.2 6.886,-3.267 10.563,-4.633 1.46,1.541 2.033,3.994 3.041,5.997 5.019,-1.757 17.79,-2.149 19.448,3.995 -0.781,1.803 -3.499,1.4 -3.726,3.835 1.835,6.665 2.353,12.898 5.925,18.393 -0.733,6.171 1.1,12.632 3.689,16.855 2.617,0.188 2.898,2.779 4.916,3.587 -0.413,3.301 1.132,4.594 0.721,7.898 3.786,4.674 13.025,8.031 10.062,16.541 -2.915,1.32 -5.501,-0.778 -8.62,-0.734 m 27.524,-29.774 c -1.11,-1.476 -0.504,-4.929 -1.651,-6.949 -1.412,-2.484 -4.289,-1.253 -3.54,-4.034 5.902,-10.738 12.644,-17.454 19.278,-27.054 -0.054,-2.201 -0.313,-4.702 0.618,-6.878 0.598,3.229 2.696,4.911 6.243,5.099 2.808,-2.96 6.116,-5.955 11.471,-4.605 1.413,1.271 1.803,3.586 3.065,5.012 6.139,1.661 9.441,9.517 13.752,14.183 2.489,2.687 5.425,3.874 4.787,8.997 -10.454,4.972 -12.202,-10.124 -21.091,-11.428 -0.848,-1.117 1.219,-1.965 0.56,-4.419 -3.708,-2.65 -9.013,0.557 -11.428,2.64 -1.364,2.254 -0.71,4.094 -1.502,5.865 -2.493,5.59 -10.513,7.416 -12.101,11.987 -0.934,2.665 0.136,8.074 -0.26,10.825 -2.92,2.769 -5.849,3.884 -8.201,0.759 m 250.748,6.511 c -2.218,-5.246 -7.048,-7.797 -9.235,-13.07 1.485,-2.674 4.173,-7.46 1.176,-11.295 -3.818,-0.991 -3.798,2.408 -6.428,2.774 -1.183,1.693 -1.934,5.56 -5.624,7.237 -1.433,0.643 -3.51,0.164 -5.024,0.839 -1.855,0.837 -2.942,2.819 -4.169,3.334 -5.22,2.198 -6.903,-2.301 -6.219,-6.088 6.589,-10.346 20.517,-12.318 20.272,-30.463 -2.785,-3.064 -3.351,-8.4 -7.956,-9.594 -0.058,-4.735 -3.502,-5.988 -4.774,-9.49 3.557,-3.142 6.416,0.553 9.48,2.729 4.673,3.325 10.736,2.745 14.873,5.34 -1.028,3.136 0.012,7.546 -0.223,9.358 -0.139,1.096 -1.226,2.469 -1.443,3.407 -2.188,9.44 0.559,14.884 2.185,22.723 3.373,6.136 7.502,11.493 9.086,19.466 -1.425,1.583 -2.753,3.27 -5.977,2.793"
         style="fill:#ef2d33;fill-opacity:1;fill-rule:nonzero;stroke:none"
         id="path42"
         inkscape:connector-curvature="0" />
    </g>
  </g>
</svg>
